<svg xmlns="http://www.w3.org/2000/svg" viewBox="0 0 64 64" fill="none">
  <!-- Left hemisphere -->
  <path d="M32 14 C20 14 12 21 12 30 C12 36 15 40 20 43 C20 47 22 50 25 51 C27 52 29 51 30 49 L30 32 C28 31 26 29 26 27 C26 24 28 22 30 22 L30 14 C30.7 14 31.3 14 32 14Z" fill="#1a4f8c"/>
  <!-- Right hemisphere -->
  <path d="M32 14 C44 14 52 21 52 30 C52 36 49 40 44 43 C44 47 42 50 39 51 C37 52 35 51 34 49 L34 32 C36 31 38 29 38 27 C38 24 36 22 34 22 L34 14 C33.3 14 32.7 14 32 14Z" fill="#1a4f8c"/>
  <!-- Center divide -->
  <line x1="32" y1="14" x2="32" y2="50" stroke="#fafaf8" stroke-width="1" stroke-dasharray="2.5 2"/>
  <!-- Left folds -->
  <path d="M18 26 Q21 22 24 25 Q23 30 19 31" stroke="#fafaf8" stroke-width="1.3" stroke-linecap="round" fill="none" opacity="0.7"/>
  <path d="M15 34 Q18 30 22 33 Q21 38 17 38" stroke="#fafaf8" stroke-width="1.3" stroke-linecap="round" fill="none" opacity="0.7"/>
  <!-- Right folds -->
  <path d="M46 26 Q43 22 40 25 Q41 30 45 31" stroke="#fafaf8" stroke-width="1.3" stroke-linecap="round" fill="none" opacity="0.7"/>
  <path d="M49 34 Q46 30 42 33 Q43 38 47 38" stroke="#fafaf8" stroke-width="1.3" stroke-linecap="round" fill="none" opacity="0.7"/>
  <!-- Bottom stem -->
  <path d="M28 49 Q30 53 32 54 Q34 53 36 49" stroke="#1a4f8c" stroke-width="1.5" fill="none" stroke-linecap="round"/>
</svg>
