<svg xmlns="http://www.w3.org/2000/svg" viewBox="0 0 64 64" fill="none">
  <!-- Bandy stick shaft -->
  <line x1="8" y1="56" x2="38" y2="16" stroke="#C9A84C" stroke-width="3.5" stroke-linecap="round"/>
  <!-- Stick blade -->
  <path d="M34 19 Q44 14 48 22 Q50 27 38 28 Z" fill="#C9A84C" opacity="0.9"/>

  <!-- Ball / Brain hybrid -->
  <circle cx="50" cy="42" r="11" fill="#0D1B2A" stroke="#C9A84C" stroke-width="1.5"/>
  <!-- Brain folds left hemisphere -->
  <path d="M42 38 Q44 34 47 36 Q46 40 43 42 Q41 41 42 38Z" fill="none" stroke="#C9A84C" stroke-width="1.2" stroke-linecap="round"/>
  <path d="M43 43 Q45 46 48 44 Q47 48 44 49 Q41 47 43 43Z" fill="none" stroke="#C9A84C" stroke-width="1.2" stroke-linecap="round"/>
  <!-- Brain folds right hemisphere -->
  <path d="M52 36 Q56 34 58 38 Q57 42 54 41 Q51 39 52 36Z" fill="none" stroke="#C9A84C" stroke-width="1.2" stroke-linecap="round"/>
  <path d="M53 43 Q57 42 59 46 Q57 49 54 48 Q51 46 53 43Z" fill="none" stroke="#C9A84C" stroke-width="1.2" stroke-linecap="round"/>
  <!-- Brain center divide -->
  <line x1="50" y1="32" x2="50" y2="52" stroke="#C9A84C" stroke-width="0.8" stroke-dasharray="2 2" opacity="0.6"/>
</svg>
